# xmcd CD database generated by RipIT
#
# Track frame offsets:
# 150
# 21115
# 40485
# 60971
# 79035
# 101109
# 120218
# 140779
# 156230
# 175545
# 195898
# 213886
#
# Disc length: 3059 seconds
#
# Revision: 0
# Processed by: cddbd v1.5.2PL0 Copyright (c) Steve Scherf et al.
# Submitted via: RipIT 3.6.0 www.suwald.com/ripit/ripit.html on 2008-04-27 at 23:24
#
DISCID=920bf10c
DTITLE=Ken Zazpi - Argiak
DYEAR=2007
DGENRE=Pop
TTITLE0=Ez nau izutzen
TTITLE1=Noizbait
TTITLE2=Itxaropena
TTITLE3=Olatuz olatu
TTITLE4=Bihar
TTITLE5=Nire lurrari
TTITLE6=Gernikan
TTITLE7=Kantu batekin
TTITLE8=Trenaren zain
TTITLE9=Irailaren 14a
TTITLE10=Ezezagunak
TTITLE11=Gaueko argiak
EXTD=
EXTT0=
EXTT1=
EXTT2=
EXTT3=
EXTT4=
EXTT5=
EXTT6=
EXTT7=
EXTT8=
EXTT9=
EXTT10=
EXTT11=
PLAYORDER=
